<svg width="82" height="82" viewBox="0 0 82 82" fill="none" xmlns="http://www.w3.org/2000/svg">
<path d="M5.75158 25.4741C6.08094 20.4035 10.1576 16.4296 15.2327 16.1782C22.5818 15.8141 33.0857 15.375 41 15.375C48.9144 15.375 59.4183 15.8141 66.7673 16.1782C71.8424 16.4296 75.9191 20.4035 76.2485 25.4741C76.564 30.3321 76.875 36.3098 76.875 41C76.875 45.6903 76.564 51.6679 76.2485 56.5259C75.9191 61.5965 71.8424 65.5704 66.7673 65.8218C59.4183 66.1859 48.9144 66.625 41 66.625C33.0857 66.625 22.5818 66.1859 15.2327 65.8218C10.1576 65.5704 6.08094 61.5965 5.75158 56.5259C5.43603 51.6679 5.12503 45.6903 5.12503 41C5.12503 36.3098 5.43603 30.3321 5.75158 25.4741Z" fill="#FC0D1B"/>
<path d="M33.3125 30.75V51.25L53.8125 41L33.3125 30.75Z" fill="white"/>
</svg>
